<?xml version="1.0" encoding="UTF-8" standalone="no"?>
<!-- Created with Inkscape (http://www.inkscape.org/) -->
<svg
   xmlns:svg="http://www.w3.org/2000/svg"
   xmlns="http://www.w3.org/2000/svg"
   version="1.0"
   width="875.88416"
   height="391.87564"
   viewBox="0 0 192.756 90"
   id="Layer_1"
   xml:space="preserve"><defs
     id="defs2220" /><path
     d="M 176.61681,7.8449062 C 169.80976,4.1436189 161.09313,3.6659675 150.347,6.6507772 C 142.94339,8.9191103 137.21363,11.903921 133.03366,15.606233 C 130.76431,13.814526 128.37707,13.456801 125.87094,14.053352 L 97.077562,22.213405 C 96.390811,22.407131 95.778883,22.497331 95.114683,22.808932 C 93.707352,23.47006 92.615726,24.494038 91.84082,25.754792 C 90.765589,27.187747 90.407863,28.739602 90.646691,30.531308 C 87.66188,30.531308 83.840667,31.128886 79.422905,32.323014 L 60.256364,37.913383 C 58.114111,38.537611 56.113302,39.185413 54.825898,41.27847 C 48.2587,38.771311 40.258548,38.532485 30.706541,41.15957 C 19.960405,44.26328 12.556804,49.278623 8.8565415,56.08362 C 6.2294575,60.623363 5.6318804,65.636651 7.0648352,70.533096 C 8.377865,75.788287 11.602525,79.486498 16.140216,82.116658 C 22.94624,85.937866 31.66287,86.294571 42.407981,83.30976 C 50.646959,81.161353 56.97533,77.57794 61.154269,72.921353 C 62.692797,75.896938 65.11488,77.285813 68.189889,77.16384 C 69.039618,77.131038 69.936496,77.029563 70.753423,76.800986 L 80.673407,73.98223 C 82.426165,73.482029 84.179943,71.757973 85.273623,70.176391 L 85.393548,69.816617 C 87.423058,71.011773 89.572487,71.371546 91.841847,70.774998 L 103.75546,67.535985 C 104.14599,67.429382 104.78866,67.181334 105.17407,67.005031 C 107.30197,66.024104 108.59656,64.408699 109.1562,62.058368 L 136.97685,54.297039 C 139.00635,53.700487 140.56026,52.625259 141.75337,50.833553 L 141.99116,50.117076 C 147.72299,51.430104 154.52696,51.074428 162.05048,48.923971 C 172.79662,45.939161 180.20022,41.162645 183.89946,34.117795 C 186.52655,29.58113 187.12412,24.804614 185.69117,19.670371 C 184.37609,14.412103 181.15451,10.470965 176.61681,7.8449062 L 176.61681,7.8449062 z"
     id="hellblau"
     style="fill:#91cfec" /><path
     d="M 175.54158,9.874413 C 169.21321,6.5318771 161.09313,6.0532006 150.9456,8.9191103 C 142.94339,11.068542 136.97378,14.411079 132.79586,19.067669 C 132.19931,17.87354 131.24195,17.038162 130.04885,16.440586 C 128.91623,15.995734 127.72107,15.916808 126.46749,16.20176 L 97.513192,24.225487 C 96.885889,24.399738 96.61734,24.584238 96.03616,24.85894 C 93.916453,25.864468 92.221096,28.389051 92.774596,30.799859 C 92.98575,31.725438 93.100552,31.650612 93.393701,32.917517 C 90.170062,32.320965 85.632376,32.798617 79.900555,34.589297 L 60.688918,39.88139 C 60.033942,40.060766 59.410737,40.133541 58.783434,40.422592 C 57.220308,41.144194 56.322402,42.447999 56.020024,44.260205 C 49.811581,40.917668 41.453702,40.558918 31.304118,43.304902 C 21.155558,46.291762 14.22961,50.825352 10.647223,57.273649 C 8.3788895,61.214788 8.0201387,65.393727 9.2152923,69.931419 C 10.647223,74.588009 13.155406,77.931569 17.215444,80.079978 C 23.543816,83.661337 31.901695,84.140013 42.050254,81.155202 C 51.602262,78.528118 58.169458,74.34816 61.990673,68.618387 L 62.587226,70.410096 C 62.70715,71.723122 63.542526,72.91623 64.736652,73.991454 C 66.398185,75.098461 68.434866,75.094359 70.271671,74.556233 L 78.968827,71.997827 C 79.95078,71.708775 79.755005,71.869699 80.758482,71.464824 C 81.788612,71.050718 82.616817,70.199968 83.244118,69.214941 C 83.840667,67.783011 84.079495,66.587856 83.840667,65.393727 L 85.393548,66.946608 C 87.18423,68.738311 88.975933,69.214941 91.244271,68.618387 L 103.19069,65.256374 C 103.66526,65.121076 103.97276,65.042151 104.44324,64.848424 C 106.10375,64.165775 106.90837,62.80662 107.12465,60.858089 L 107.12465,60.858089 L 107.36143,60.380433 L 136.61502,52.023582 C 137.92805,51.903656 139.00328,51.067254 139.71976,49.635323 L 140.55411,47.483841 C 143.88947,48.005567 147.40933,48.562145 151.21005,48.36637 C 154.56283,48.192118 158.1852,47.748292 161.44779,46.647438 C 171.59737,43.901453 178.52229,39.364789 182.10365,32.916491 C 184.37199,28.976378 184.97059,24.797439 183.53559,20.259748 C 182.11083,15.606233 179.60163,12.023846 175.54158,9.874413 L 175.54158,9.874413 z"
     id="dunkelblau"
     style="fill:#1e479b" /><path
     d="M 163.50018,11.282936 C 160.08105,11.273132 156.21495,11.879035 151.90176,13.09895 C 142.95245,15.630709 137.04388,19.460497 133.99246,24.797693 C 132.26634,27.819403 131.84319,31.005766 132.7985,34.349325 C 133.75175,37.69186 135.74656,40.387912 138.76827,42.115043 C 144.10546,45.164428 151.29476,45.067447 160.25944,42.476239 C 166.57962,40.649682 171.66903,38.361505 175.18889,34.951319 C 179.43035,30.837978 180.76388,26.361268 179.3627,21.456628 C 178.37665,18.002366 176.39107,15.454942 173.39294,13.69091 C 170.67354,12.091617 167.37517,11.294047 163.50018,11.282936 z M 157.81133,19.771046 C 159.45166,19.747468 161.04424,20.042354 162.28615,20.684069 C 164.40278,21.556347 165.14137,23.335407 165.62722,25.158889 C 166.09565,26.92292 165.83073,28.603069 164.79445,30.4163 C 163.44247,32.782006 161.20114,34.293881 158.23273,35.302482 C 155.23049,36.323385 152.42527,36.046652 149.87505,34.590122 C 148.23811,33.65327 147.31108,32.333745 146.76475,30.526666 C 146.11695,28.391582 146.56209,26.256903 148.0791,24.436497 C 149.54486,22.675542 151.53659,21.201026 154.04887,20.383073 C 155.22961,19.99876 156.53553,19.789385 157.81133,19.771046 z M 128.17318,20.34294 C 128.01302,20.335748 127.83983,20.352835 127.66149,20.383073 L 97.933033,28.620353 C 96.976706,28.979102 96.74105,29.580922 96.979878,30.4163 L 104.1436,55.489335 C 104.38038,56.205813 104.9742,56.438468 105.92951,56.201693 L 135.42721,47.844016 C 136.36099,47.579565 136.66223,47.222643 136.38036,46.288865 L 135.1864,42.35584 C 134.82765,41.520463 134.2278,41.27422 133.63126,41.513049 L 117.86906,45.937703 C 117.03163,46.057626 116.44284,45.689492 116.32394,44.854114 L 115.84234,43.549794 C 115.72243,42.475591 116.08052,42.113072 116.9159,41.874246 L 128.97584,38.292384 C 130.05107,38.173484 130.16727,37.572611 130.04939,36.737233 L 128.85543,32.804208 C 128.37676,31.968831 127.78648,31.600693 127.18993,31.72062 L 114.88918,35.312515 C 114.05175,35.551342 113.45293,35.184705 113.33404,34.349325 L 112.85244,32.804208 C 112.73354,31.730004 113.09062,31.367486 113.926,31.128659 L 129.45743,26.944804 C 130.17391,26.82488 130.40862,26.233093 130.1698,25.158889 L 129.21663,21.215831 C 129.03829,20.589299 128.65365,20.364513 128.17318,20.34294 z M 90.09708,37.09843 C 87.78788,37.168431 84.844849,37.766723 81.217677,38.773978 L 61.151222,44.262154 C 60.195914,44.500979 59.959243,45.102321 60.198066,45.937703 L 66.769828,69.575986 C 66.889753,70.414436 67.481539,70.767962 68.555743,70.529142 L 78.70937,67.549273 C 79.425848,67.429351 79.660551,66.950449 79.421729,65.994123 L 74.645915,48.917571 C 74.527017,47.485642 74.884565,46.649587 75.839865,46.529663 L 79.421729,45.456107 C 80.381131,45.169106 81.410205,45.03956 82.411628,45.094912 C 83.627287,45.160511 84.47666,45.924282 84.799541,46.890859 C 85.074246,47.712913 84.990743,48.296419 84.679141,48.917571 C 84.034417,50.209074 82.052927,51.303331 78.70937,52.258636 L 77.635814,52.499433 C 77.277061,52.618332 77.276591,52.861576 77.515413,53.101426 L 88.612167,63.967412 C 88.970919,64.447116 89.449333,64.555825 90.046919,64.438973 L 101.93628,61.097908 C 103.07916,60.775035 103.12596,59.848681 102.23729,59.14143 L 92.555221,51.425878 L 93.036818,51.064682 L 93.157219,51.064682 C 96.977412,48.436573 98.407213,45.700899 97.571837,42.476239 C 96.974262,40.326808 96.022949,38.885465 94.35117,37.931187 C 93.306309,37.30427 91.893132,37.043983 90.09708,37.09843 z M 44.084703,45.666805 C 40.667104,45.651169 36.806144,46.251375 32.496325,47.48282 C 23.54087,50.108879 17.571825,53.818525 14.587015,59.191596 C 12.795309,62.175381 12.437758,65.398635 13.393061,68.743228 C 14.348364,72.324586 16.37802,74.947057 19.362831,76.498911 C 24.497074,79.483722 31.660749,79.727989 40.854004,77.100904 C 47.1834,75.310224 52.201057,72.796629 55.783445,69.335189 C 59.962386,65.155228 61.390219,60.856864 59.957269,55.840498 C 59.00196,52.496935 56.973335,49.875495 53.987498,48.084813 C 51.259931,46.499133 47.957984,45.684525 44.084703,45.666805 z M 37.683504,54.305414 C 39.449833,54.260459 41.205289,54.684894 42.800449,55.569601 C 44.437381,56.477754 45.616887,57.793552 45.991016,59.663157 C 46.588592,61.452818 46.473256,63.011542 45.399055,64.80017 C 44.085001,67.189455 41.81163,68.74361 38.706893,69.816783 C 35.721059,70.53531 32.857872,70.415955 30.469614,68.984025 C 28.678932,68.027696 27.726126,66.829594 27.128549,65.040967 C 26.531996,62.771608 27.120311,60.622109 28.553268,58.8304 C 29.866297,57.040744 31.895953,55.603819 34.523037,54.887341 C 35.556241,54.529872 36.623706,54.332387 37.683504,54.305414 z"
     id="OREO"
     style="fill:#ffffff" /></svg>